<svg width="19" height="19" viewBox="0 0 19 19" fill="none" xmlns="http://www.w3.org/2000/svg">
<g clip-path="url(#clip0_9032_81)">
<path d="M7.177 14.9467C3.33772 16.0985 3.33772 13.0271 1.802 12.6432M12.552 17.2503V14.2787C12.5808 13.9126 12.5313 13.5445 12.4069 13.1989C12.2824 12.8534 12.0859 12.5383 11.8302 12.2746C14.2413 12.0058 16.7752 11.0921 16.7752 6.8996C16.775 5.82753 16.3626 4.79659 15.6234 4.02013C15.9735 3.0822 15.9487 2.04547 15.5543 1.12531C15.5543 1.12531 14.6483 0.85656 12.552 2.26174C10.7921 1.78476 8.93692 1.78476 7.177 2.26174C5.08075 0.85656 4.17468 1.12531 4.17468 1.12531C3.78029 2.04547 3.75554 3.0822 4.10557 4.02013C3.36085 4.80235 2.94805 5.84261 2.95379 6.92263C2.95379 11.0844 5.48772 11.9982 7.89879 12.2976C7.64616 12.5587 7.45133 12.87 7.32697 13.2113C7.20261 13.5526 7.15152 13.9163 7.177 14.2787V17.2503" stroke="#98FF98" stroke-width="1.5" stroke-linecap="round" stroke-linejoin="round"/>
</g>
<defs>
<clipPath id="clip0_9032_81">
<rect width="18.4286" height="18.4286" fill="white" transform="translate(0.266357 0.357178)"/>
</clipPath>
</defs>
</svg>
