<svg width="19" height="19" viewBox="0 0 19 19" fill="none" xmlns="http://www.w3.org/2000/svg">
<g clip-path="url(#clip0_9032_90)">
<path d="M13.6059 1.89233H5.92674C3.8062 1.89233 2.08716 3.61137 2.08716 5.73192V13.4111C2.08716 15.5316 3.8062 17.2507 5.92674 17.2507H13.6059C15.7265 17.2507 17.4455 15.5316 17.4455 13.4111V5.73192C17.4455 3.61137 15.7265 1.89233 13.6059 1.89233Z" stroke="#98FF98" stroke-width="1.5" stroke-linecap="round" stroke-linejoin="round"/>
<path d="M12.8379 9.08766C12.9327 9.72676 12.8235 10.3795 12.5259 10.9529C12.2284 11.5264 11.7575 11.9915 11.1804 12.2819C10.6033 12.5724 9.94934 12.6735 9.31146 12.5709C8.67358 12.4682 8.08431 12.1671 7.62746 11.7102C7.17061 11.2534 6.86944 10.6641 6.7668 10.0262C6.66415 9.38834 6.76526 8.73434 7.05573 8.15723C7.34621 7.58013 7.81126 7.10931 8.38473 6.81174C8.95821 6.51417 9.61092 6.40501 10.25 6.49978C10.9019 6.59645 11.5054 6.90022 11.9715 7.36623C12.4375 7.83223 12.7412 8.43576 12.8379 9.08766Z" stroke="#98FF98" stroke-width="1.5" stroke-linecap="round" stroke-linejoin="round"/>
<path d="M13.9897 5.3479H13.9974" stroke="#98FF98" stroke-width="1.5" stroke-linecap="round" stroke-linejoin="round"/>
</g>
<defs>
<clipPath id="clip0_9032_90">
<rect width="18.43" height="18.43" fill="white" transform="translate(0.55127 0.356445)"/>
</clipPath>
</defs>
</svg>
