<svg width="19" height="19" viewBox="0 0 19 19" fill="none" xmlns="http://www.w3.org/2000/svg">
<g clip-path="url(#clip0_9032_85)">
<path d="M12.6948 6.5C13.9167 6.5 15.0885 6.98539 15.9525 7.8494C16.8165 8.71341 17.3019 9.88525 17.3019 11.1071V16.4821H14.2305V11.1071C14.2305 10.6998 14.0687 10.3092 13.7807 10.0212C13.4927 9.73323 13.1021 9.57143 12.6948 9.57143C12.2875 9.57143 11.8969 9.73323 11.6089 10.0212C11.3209 10.3092 11.1591 10.6998 11.1591 11.1071V16.4821H8.08765V11.1071C8.08765 9.88525 8.57304 8.71341 9.43705 7.8494C10.3011 6.98539 11.4729 6.5 12.6948 6.5Z" stroke="#98FF98" stroke-width="1.5" stroke-linecap="round" stroke-linejoin="round"/>
<path d="M5.01625 7.26807H1.94482V16.4824H5.01625V7.26807Z" stroke="#98FF98" stroke-width="1.5" stroke-linecap="round" stroke-linejoin="round"/>
<path d="M3.48054 4.96449C4.32869 4.96449 5.01625 4.27693 5.01625 3.42878C5.01625 2.58063 4.32869 1.89307 3.48054 1.89307C2.63239 1.89307 1.94482 2.58063 1.94482 3.42878C1.94482 4.27693 2.63239 4.96449 3.48054 4.96449Z" stroke="#98FF98" stroke-width="1.5" stroke-linecap="round" stroke-linejoin="round"/>
</g>
<defs>
<clipPath id="clip0_9032_85">
<rect width="18.4286" height="18.4286" fill="white" transform="translate(0.40918 0.357178)"/>
</clipPath>
</defs>
</svg>
