<svg width="25" height="33" viewBox="0 0 25 33" fill="none" xmlns="http://www.w3.org/2000/svg">
<path d="M1.25419 9.71166C0.171398 10.6424 -1.20774 13.993 1.93806 19.9496L23.0232 20.0569C26.169 14.1052 24.6646 11.9974 23.5818 11.0674C24.0947 12.049 24.8012 13.1133 23.0232 14.4772C21.2451 15.8411 21.5419 9.88014 21.5419 6.57367C21.4279 7.34862 20.7779 9.71166 18.6354 11.0674C16.8118 9.15587 16.0367 7.78265 18.6354 5.79877C16.0709 5.79873 13.6774 -0.710884 13.8483 0.0640845C13.6204 0.684073 14.8058 5.67478 14.5322 5.79877C12.4806 5.67955 10.9698 3.59614 10.9698 1.98424C10.9698 3.59749 11.0538 5.8608 10.3129 6.27448C10.0454 6.15312 9.66911 1.55422 9.41922 0.762994C9.32814 1.52545 8.50754 5.67952 6.3258 5.67955C8.9245 7.6651 8.14945 9.03947 6.3258 10.9526C4.54773 8.71889 4.38816 7.23071 4.27419 6.4551C4.27419 9.76434 3.71613 15.7303 1.93806 14.3653C0.159989 13.0002 0.741285 10.6941 1.25419 9.71166Z" fill="#98FF98"/>
<path d="M23.2011 21.4886C23.2011 27.4244 18.3892 32.2362 12.4535 32.2362C6.51769 32.2362 1.70581 27.4244 1.70581 21.4886C1.70581 15.5528 6.51769 10.741 12.4535 10.741C18.3892 10.741 23.2011 15.5528 23.2011 21.4886Z" fill="#98FF98"/>
<path d="M16.5623 19.3438C17.8246 19.3438 18.8395 20.3409 18.8396 21.5938C18.8396 22.8514 17.8199 23.8711 16.5623 23.8711C15.3048 23.8709 14.2859 22.8513 14.2859 21.5938C14.286 20.341 15.3001 19.344 16.5623 19.3438Z" fill="#121313" stroke="black" stroke-width="0.714055"/>
<path d="M11.0155 21.5939C11.0155 23.0487 9.83614 24.2281 8.3813 24.2281C6.92645 24.2281 5.74707 23.0487 5.74707 21.5939C5.74707 20.139 6.92645 18.8591 8.3813 18.8591C9.83614 18.8591 11.0155 20.139 11.0155 21.5939Z" fill="#121313"/>
</svg>
