<svg width="148" height="148" viewBox="0 0 148 148" fill="none" xmlns="http://www.w3.org/2000/svg">
<g id="Group 8">
<g id="stamp-extra 1" clip-path="url(#clip0_9032_18)">
<g id="stamp-extra">
<path id="Ellipse 2433" d="M74.261 147.478C114.986 147.478 148 114.464 148 73.739C148 33.0141 114.986 0 74.261 0C33.5361 0 0.521973 33.0141 0.521973 73.739C0.521973 114.464 33.5361 147.478 74.261 147.478Z" fill="#91A7FF"/>
</g>
<circle id="Ellipse 2435" cx="74.6225" cy="74.1005" r="40.4856" stroke="#121214" stroke-width="0.72004"/>
<g id="formkit:arrowdown">
<path id="Vector" d="M74.0788 87.6621C73.2807 87.6621 72.6536 87.035 72.6536 86.2368V60.582C72.6536 59.7839 73.2807 59.1567 74.0788 59.1567C74.877 59.1567 74.7975 59.7839 74.7975 60.582L75.5041 86.2368C75.5041 87.035 74.877 87.6621 74.0788 87.6621Z" fill="#121214"/>
<path id="Vector_2" d="M74.0791 90.5124C73.8922 90.5147 73.7069 90.4778 73.5351 90.4042C73.3632 90.3305 73.2087 90.2218 73.0815 90.0848L63.1046 80.108C62.5345 79.5378 62.5345 78.6542 63.1046 78.0841C63.6747 77.514 64.5584 77.514 65.1285 78.0841L74.1076 87.0633L83.0868 78.0841C83.6569 77.514 84.5406 77.514 85.1107 78.0841C85.6808 78.6542 85.6808 79.5378 85.1107 80.108L75.1338 90.0848C74.8488 90.3699 74.4782 90.5124 74.1362 90.5124H74.0791Z" fill="#121214"/>
</g>
</g>
<g id="Group 5">
<path id="." d="M77.9939 19.2366C77.6958 19.1927 77.4566 19.0585 77.2765 18.834C77.1049 18.6032 77.0421 18.3313 77.0882 18.0183C77.1342 17.7053 77.2721 17.4667 77.5019 17.3026C77.7402 17.1321 78.0083 17.0687 78.3064 17.1126C78.612 17.1576 78.8506 17.2955 79.0222 17.5263C79.1949 17.7497 79.2582 18.0179 79.2121 18.3309C79.1661 18.6439 79.0276 18.8862 78.7968 19.0578C78.5671 19.2219 78.2994 19.2815 77.9939 19.2366Z" fill="black"/>
<path id="S" d="M95.2686 23.3007C94.7162 23.0417 94.2749 22.7142 93.9447 22.3182C93.6146 21.9221 93.4165 21.484 93.3504 21.0038C93.2843 20.5236 93.3728 20.0243 93.6158 19.506L93.7501 19.2195L95.0801 19.843L94.9458 20.1294C94.7444 20.5591 94.7255 20.9454 94.8892 21.2884C95.0561 21.6245 95.368 21.8997 95.825 22.1139C96.2888 22.3313 96.6764 22.4007 96.9878 22.3221C97.306 22.2466 97.5322 22.0657 97.6665 21.7792C97.7593 21.5814 97.7764 21.394 97.718 21.2169C97.6664 21.0429 97.5491 20.8673 97.366 20.69C97.193 20.509 96.969 20.3125 96.694 20.1004L96.4827 19.9389C96.0428 19.5996 95.6838 19.2649 95.4059 18.935C95.138 18.6014 94.9725 18.2535 94.9094 17.8911C94.8532 17.532 94.9273 17.1341 95.132 16.6976C95.3366 16.2611 95.6132 15.9374 95.9617 15.7264C96.3202 15.5117 96.7254 15.4105 97.1772 15.4227C97.6391 15.4312 98.1258 15.5554 98.6373 15.7952C99.1489 16.035 99.5609 16.3362 99.8733 16.699C100.196 17.0582 100.388 17.4644 100.45 17.9178C100.522 18.3675 100.437 18.8516 100.194 19.3699L100.05 19.6768L98.7197 19.0534L98.8636 18.7465C98.9915 18.4736 99.0393 18.2298 99.0069 18.0149C98.9845 17.7965 98.892 17.6034 98.7294 17.4356C98.57 17.261 98.3538 17.1098 98.081 16.9819C97.6718 16.7901 97.3315 16.7262 97.0602 16.7904C96.7988 16.8509 96.6058 17.0142 96.4811 17.2802C96.398 17.4575 96.372 17.6283 96.4031 17.7927C96.4411 17.9602 96.5329 18.1281 96.6787 18.2962C96.8245 18.4644 97.0262 18.6463 97.2839 18.842L97.4952 19.0035C97.9556 19.3524 98.3334 19.7 98.6286 20.0464C98.9306 20.396 99.1218 20.7601 99.2021 21.1389C99.2825 21.5176 99.2203 21.9253 99.0157 22.3618C98.8111 22.7983 98.5179 23.1309 98.1362 23.3596C97.7644 23.5847 97.3292 23.6968 96.8304 23.6959C96.3417 23.6914 95.8211 23.5597 95.2686 23.3007Z" fill="black"/>
<path id="c" d="M102.649 26.9929C101.832 26.4526 101.334 25.7984 101.156 25.0301C100.982 24.2557 101.176 23.4444 101.737 22.5963L102.784 21.0131C103.345 20.165 104.014 19.6727 104.791 19.5363C105.572 19.3936 106.371 19.5924 107.187 20.1327C107.998 20.6689 108.475 21.3054 108.62 22.0424C108.775 22.7773 108.597 23.5311 108.086 24.3038L108.048 24.3603L106.823 23.5498L106.886 23.4556C107.143 23.0661 107.245 22.673 107.192 22.2762C107.144 21.8836 106.898 21.5397 106.452 21.2447C106.012 20.9537 105.577 20.8602 105.147 20.9641C104.717 21.068 104.348 21.3523 104.041 21.8172L102.968 23.4381C102.665 23.8967 102.547 24.3473 102.616 24.79C102.688 25.2264 102.945 25.59 103.384 25.881C103.83 26.1761 104.243 26.2686 104.623 26.1587C105.013 26.0466 105.335 25.7989 105.589 25.4157L105.701 25.2461L106.926 26.0565L106.839 26.1885C106.328 26.9612 105.701 27.423 104.96 27.574C104.23 27.7228 103.459 27.5291 102.649 26.9929Z" fill="black"/>
<path id="r" d="M107.063 29.4526L112.341 23.5619L114.899 25.8541C115.269 26.1859 115.534 26.5394 115.693 26.9148C115.853 27.2901 115.903 27.6635 115.843 28.0348C115.783 28.4062 115.61 28.7517 115.324 29.0715L115.233 29.1725C114.916 29.5259 114.576 29.7366 114.212 29.8046C113.847 29.8726 113.496 29.8465 113.159 29.7263L113.023 29.8778C113.238 30.0901 113.341 30.3245 113.334 30.5809C113.332 30.8318 113.225 31.075 113.014 31.3106L111.287 33.2377L110.176 32.2424L111.76 30.4752C111.881 30.3406 111.942 30.1985 111.945 30.049C111.953 29.9045 111.875 29.7594 111.713 29.6136L110.164 28.2263L108.174 30.4479L107.063 29.4526ZM111.069 27.2164L112.399 28.4078C112.662 28.644 112.93 28.7574 113.201 28.7478C113.484 28.7377 113.73 28.6148 113.941 28.3792L114.017 28.295C114.228 28.0594 114.323 27.8061 114.303 27.5351C114.288 27.2586 114.146 26.9997 113.876 26.7584L112.547 25.567L111.069 27.2164Z" fill="black"/>
<path id="o" d="M115.05 37.1154C114.414 36.3511 114.116 35.5697 114.157 34.7711C114.204 33.9677 114.618 33.2408 115.4 32.5903L116.859 31.3761C117.641 30.7256 118.428 30.4527 119.22 30.5573C120.019 30.6572 120.736 31.0893 121.372 31.8536C122.008 32.6179 122.303 33.4017 122.256 34.2051C122.215 35.0036 121.804 35.7281 121.022 36.3786L119.563 37.5929C118.781 38.2434 117.991 38.5187 117.193 38.4188C116.4 38.3141 115.686 37.8796 115.05 37.1154ZM116.074 36.2625C116.431 36.691 116.833 36.9203 117.279 36.9505C117.726 36.9807 118.157 36.8223 118.574 36.4754L120.103 35.2033C120.52 34.8564 120.754 34.4606 120.805 34.016C120.857 33.5714 120.704 33.1349 120.347 32.7065C119.996 32.2838 119.594 32.0545 119.143 32.0185C118.696 31.9883 118.265 32.1466 117.848 32.4936L116.319 33.7656C115.902 34.1126 115.668 34.5083 115.617 34.9529C115.57 35.4033 115.723 35.8398 116.074 36.2625Z" fill="black"/>
<path id="o_2" d="M119.991 43.3962C119.473 42.5474 119.292 41.731 119.449 40.947C119.612 40.159 120.128 39.5001 120.996 38.9704L122.617 37.9815C123.485 37.4517 124.303 37.2963 125.072 37.5153C125.848 37.7304 126.494 38.2623 127.012 39.1111C127.53 39.9598 127.708 40.7782 127.544 41.5662C127.387 42.3502 126.875 43.0071 126.007 43.5369L124.387 44.5258C123.519 45.0555 122.697 45.2129 121.921 44.9978C121.152 44.7788 120.509 44.2449 119.991 43.3962ZM121.129 42.7016C121.419 43.1774 121.783 43.4628 122.221 43.5577C122.658 43.6526 123.108 43.5587 123.571 43.2762L125.269 42.2402C125.732 41.9577 126.021 41.6003 126.136 41.1679C126.252 40.7355 126.165 40.2814 125.874 39.8056C125.588 39.3363 125.224 39.0509 124.783 38.9496C124.345 38.8547 123.895 38.9485 123.432 39.2311L121.735 40.267C121.272 40.5496 120.982 40.907 120.867 41.3394C120.755 41.7782 120.842 42.2322 121.129 42.7016Z" fill="black"/>
<path id="l" d="M122.908 47.4397L130.187 44.3463L130.771 45.719L124.739 48.282L126.153 51.6098L124.905 52.14L122.908 47.4397Z" fill="black"/>
<path id="D" d="M128.49 62.2556L129.793 62.1123L129.907 63.1455L135.163 62.5672L135.049 61.5339L136.352 61.3906L136.708 64.6252C136.824 65.6809 136.643 66.5117 136.164 67.1177C135.693 67.7302 134.93 68.0946 133.874 68.2108L132.392 68.3739C131.336 68.49 130.508 68.3007 129.908 67.806C129.316 67.3179 128.962 66.546 128.846 65.4902L128.49 62.2556ZM130.115 64.6231L130.196 65.3644C130.262 65.9634 130.468 66.3841 130.813 66.6266C131.158 66.869 131.615 66.9589 132.184 66.8963L133.756 66.7233C134.333 66.6598 134.759 66.4727 135.036 66.1619C135.32 65.8503 135.429 65.3949 135.363 64.7959L135.281 64.0547L130.115 64.6231Z" fill="black"/>
<path id="o_3" d="M129.349 73.5169C129.386 72.5233 129.686 71.7428 130.249 71.1754C130.82 70.6083 131.614 70.3434 132.63 70.3805L134.527 70.4498C135.543 70.487 136.312 70.809 136.832 71.416C137.36 72.0233 137.606 72.8237 137.57 73.8174C137.533 74.811 137.23 75.5914 136.659 76.1585C136.095 76.7258 135.305 76.9909 134.289 76.9538L132.392 76.8845C131.376 76.8473 130.604 76.5251 130.076 75.9179C129.555 75.3109 129.313 74.5106 129.349 73.5169ZM130.682 73.5656C130.661 74.1227 130.807 74.5614 131.12 74.8819C131.432 75.2024 131.86 75.3725 132.402 75.3923L134.389 75.4649C134.931 75.4848 135.369 75.3463 135.704 75.0494C136.039 74.7526 136.217 74.3257 136.237 73.7687C136.257 73.2191 136.111 72.7804 135.799 72.4524C135.487 72.1319 135.06 71.9618 134.518 71.942L132.53 71.8693C131.988 71.8495 131.55 71.988 131.215 72.2848C130.88 72.5892 130.702 73.0161 130.682 73.5656Z" fill="black"/>
<path id="w" d="M129.437 79.121L137.403 79.5354L137.135 80.9909L130.239 80.4987L130.202 80.6987L136.777 82.9243L136.309 85.4576L129.373 85.1876L129.336 85.3876L135.952 87.391L135.684 88.8465L128.095 86.3877L128.562 83.8543L135.658 84.1309L135.695 83.9309L128.969 81.6543L129.437 79.121Z" fill="black"/>
<path id="n" d="M128.313 86.4503L135.799 89.004L134.883 91.6882L127.853 90.9492L127.787 91.1417L134.31 93.3672L133.836 94.7574L126.35 92.2036L127.266 89.5194L134.297 90.2584L134.362 90.0659L127.839 87.8405L128.313 86.4503Z" fill="black"/>
<path id="._2" d="M117.191 108.634C117.4 108.417 117.648 108.3 117.936 108.284C118.223 108.279 118.481 108.386 118.709 108.606C118.936 108.826 119.05 109.076 119.05 109.359C119.05 109.652 118.945 109.907 118.736 110.124C118.522 110.346 118.271 110.46 117.983 110.465C117.701 110.476 117.446 110.371 117.218 110.151C116.991 109.932 116.874 109.678 116.869 109.391C116.869 109.108 116.976 108.856 117.191 108.634Z" fill="black"/>
<path id="S_2" d="M103.834 120.318C104.366 120.019 104.89 119.851 105.404 119.813C105.918 119.775 106.39 119.868 106.819 120.094C107.248 120.32 107.602 120.682 107.882 121.181L108.037 121.457L106.756 122.176L106.601 121.9C106.369 121.486 106.066 121.246 105.692 121.18C105.321 121.12 104.916 121.214 104.476 121.461C104.029 121.711 103.747 121.986 103.63 122.285C103.506 122.588 103.522 122.877 103.677 123.153C103.783 123.344 103.926 123.467 104.104 123.522C104.275 123.581 104.487 123.588 104.737 123.542C104.985 123.507 105.275 123.439 105.608 123.339L105.862 123.261C106.394 123.101 106.875 123.004 107.305 122.969C107.732 122.946 108.112 123.014 108.443 123.173C108.768 123.336 109.048 123.628 109.284 124.049C109.52 124.469 109.622 124.882 109.591 125.288C109.557 125.705 109.404 126.093 109.131 126.454C108.855 126.824 108.471 127.148 107.978 127.425C107.486 127.701 107.001 127.861 106.524 127.904C106.044 127.957 105.602 127.877 105.197 127.664C104.79 127.461 104.446 127.109 104.166 126.61L104 126.315L105.281 125.596L105.447 125.891C105.594 126.154 105.765 126.335 105.958 126.433C106.149 126.542 106.36 126.58 106.591 126.545C106.825 126.517 107.074 126.429 107.337 126.282C107.731 126.06 107.981 125.821 108.087 125.563C108.19 125.315 108.169 125.063 108.025 124.807C107.929 124.636 107.806 124.515 107.654 124.445C107.496 124.379 107.306 124.356 107.084 124.376C106.862 124.397 106.597 124.455 106.288 124.551L106.034 124.629C105.482 124.8 104.979 124.905 104.526 124.944C104.066 124.986 103.659 124.93 103.304 124.775C102.949 124.62 102.654 124.332 102.418 123.911C102.182 123.491 102.082 123.059 102.118 122.615C102.151 122.182 102.313 121.763 102.604 121.358C102.892 120.963 103.302 120.616 103.834 120.318Z" fill="black"/>
<path id="c_2" d="M96.5383 124.172C97.4529 123.822 98.2744 123.798 99.0029 124.1C99.7341 124.409 100.281 125.039 100.645 125.989L101.323 127.762C101.686 128.711 101.697 129.542 101.356 130.253C101.018 130.971 100.391 131.505 99.4767 131.855C98.5691 132.202 97.7736 132.22 97.09 131.909C96.4021 131.607 95.8927 131.024 95.5617 130.158L95.5375 130.095L96.9094 129.57L96.9498 129.676C97.1166 130.112 97.377 130.424 97.7309 130.611C98.0777 130.801 98.5009 130.801 99.0004 130.609C99.4929 130.421 99.8221 130.122 99.9878 129.712C100.153 129.301 100.137 128.836 99.9377 128.315L99.2434 126.5C99.047 125.987 98.7488 125.629 98.349 125.427C97.9519 125.232 97.507 125.229 97.0145 125.417C96.515 125.608 96.1995 125.89 96.0679 126.263C95.932 126.646 95.9461 127.052 96.1102 127.481L96.1829 127.671L94.8109 128.196L94.7544 128.048C94.4234 127.182 94.4122 126.404 94.7206 125.714C95.0248 125.033 95.6306 124.519 96.5383 124.172Z" fill="black"/>
<path id="r_2" d="M91.9687 126.331L93.6885 134.051L90.3357 134.798C89.8505 134.906 89.4089 134.915 89.0109 134.826C88.613 134.738 88.2804 134.561 88.013 134.296C87.7457 134.032 87.5654 133.69 87.472 133.271L87.4426 133.138C87.3394 132.675 87.3661 132.276 87.5228 131.94C87.6795 131.604 87.9049 131.334 88.1989 131.129L88.1547 130.931C87.8573 130.982 87.6065 130.929 87.4021 130.774C87.1994 130.627 87.0637 130.398 86.9949 130.089L86.4323 127.564L87.8881 127.24L88.404 129.556C88.4433 129.732 88.5231 129.865 88.6432 129.954C88.756 130.044 88.919 130.066 89.1322 130.019L91.1615 129.566L90.5129 126.655L91.9687 126.331ZM91.4563 130.89L89.7138 131.278C89.3682 131.355 89.1203 131.507 88.9701 131.733C88.8142 131.969 88.7706 132.241 88.8394 132.549L88.864 132.66C88.9328 132.969 89.0832 133.194 89.3153 133.335C89.5491 133.483 89.8424 133.518 90.1953 133.44L91.9379 133.052L91.4563 130.89Z" fill="black"/>
<path id="o_4" d="M81.0895 128.367C82.0812 128.294 82.8898 128.507 83.5154 129.005C84.1415 129.511 84.4917 130.27 84.5659 131.285L84.7044 133.178C84.7787 134.192 84.5426 134.991 83.9962 135.575C83.4504 136.166 82.6816 136.498 81.6899 136.571C80.6983 136.643 79.8894 136.427 79.2632 135.921C78.6377 135.423 78.2878 134.667 78.2135 133.653L78.075 131.76C78.0007 130.746 78.2365 129.943 78.7824 129.351C79.3288 128.768 80.0978 128.439 81.0895 128.367ZM81.1868 129.697C80.6309 129.737 80.2107 129.93 79.9263 130.276C79.642 130.622 79.5196 131.065 79.5592 131.606L79.7043 133.589C79.7439 134.13 79.9295 134.551 80.2612 134.851C80.5929 135.152 81.0367 135.282 81.5926 135.241C82.141 135.201 82.5612 135.008 82.8531 134.662C83.1374 134.316 83.2598 133.873 83.2202 133.332L83.0751 131.348C83.0355 130.808 82.8499 130.387 82.5182 130.086C82.179 129.786 81.7352 129.657 81.1868 129.697Z" fill="black"/>
<path id="o_5" d="M73.1054 128.731C74.0971 128.803 74.8661 129.132 75.4125 129.715C75.9584 130.307 76.1942 131.109 76.12 132.124L75.9814 134.017C75.9072 135.031 75.5573 135.787 74.9317 136.285C74.3056 136.791 73.4967 137.007 72.505 136.935C71.5133 136.862 70.7446 136.53 70.1987 135.939C69.6523 135.355 69.4163 134.556 69.4905 133.542L69.629 131.649C69.7033 130.634 70.0535 129.874 70.6796 129.369C71.3052 128.871 72.1138 128.658 73.1054 128.731ZM73.0081 130.06C72.4522 130.02 72.0084 130.15 71.6767 130.45C71.3451 130.751 71.1594 131.171 71.1198 131.712L70.9747 133.696C70.9351 134.237 71.0575 134.68 71.3419 135.025C71.6262 135.371 72.0464 135.564 72.6023 135.605C73.1507 135.645 73.5945 135.515 73.9337 135.215C74.2654 134.915 74.451 134.494 74.4906 133.953L74.6358 131.97C74.6753 131.429 74.553 130.985 74.2686 130.64C73.9767 130.294 73.5565 130.101 73.0081 130.06Z" fill="black"/>
<path id="l_2" d="M68.1204 128.751L66.4006 136.472L64.9448 136.147L66.3698 129.751L62.8406 128.964L63.1354 127.641L68.1204 128.751Z" fill="black"/>
<path id="D_2" d="M52.8222 124.671L52.1807 125.814L51.2742 125.305L48.6862 129.917L49.5927 130.425L48.9512 131.568L46.1134 129.976C45.1872 129.456 44.6171 128.825 44.403 128.083C44.1786 127.344 44.3264 126.511 44.8462 125.585L45.5761 124.284C46.096 123.358 46.7316 122.795 47.4832 122.594C48.2244 122.397 49.0582 122.558 49.9844 123.078L52.8222 124.671ZM49.9514 124.615L49.3011 124.25C48.7756 123.955 48.3139 123.877 47.916 124.016C47.5181 124.156 47.1791 124.475 46.8989 124.975L46.1247 126.354C45.8408 126.86 45.7448 127.316 45.8367 127.721C45.9249 128.134 46.2318 128.487 46.7573 128.782L47.4076 129.147L49.9514 124.615Z" fill="black"/>
<path id="o_6" d="M43.1637 118.817C43.9507 119.425 44.411 120.123 44.5446 120.911C44.6736 121.705 44.4273 122.505 43.8058 123.31L42.6456 124.812C42.0241 125.617 41.3151 126.055 40.5186 126.125C39.7174 126.201 38.9234 125.935 38.1364 125.328C37.3494 124.72 36.8914 124.019 36.7624 123.224C36.6289 122.436 36.8728 121.639 37.4943 120.835L38.6545 119.332C39.276 118.527 39.9873 118.087 40.7885 118.011C41.585 117.94 42.3767 118.209 43.1637 118.817ZM42.3489 119.872C41.9077 119.531 41.4659 119.395 41.0234 119.463C40.581 119.53 40.1941 119.779 39.8626 120.208L38.6472 121.782C38.3157 122.211 38.1732 122.648 38.2197 123.094C38.2662 123.539 38.5101 123.932 38.9513 124.272C39.3865 124.608 39.8283 124.745 40.2767 124.682C40.7191 124.614 41.106 124.366 41.4375 123.936L42.6529 122.362C42.9844 121.933 43.1269 121.496 43.0804 121.051C43.0279 120.601 42.7841 120.208 42.3489 119.872Z" fill="black"/>
<path id="w_2" d="M38.5552 115.627L33.5827 121.865L32.5553 120.8L36.9677 115.478L36.8265 115.332L31.1908 119.384L29.4027 117.53L33.6582 112.046L33.517 111.899L28.0381 116.114L27.0108 115.049L33.4262 110.307L35.2143 112.162L30.8606 117.772L31.0018 117.918L36.7671 113.773L38.5552 115.627Z" fill="black"/>
<path id="n_2" d="M33.2481 110.448L26.8155 115.05L25.1653 112.743L29.857 107.456L29.7387 107.29L24.1331 111.301L23.2784 110.106L29.711 105.504L31.3612 107.811L26.6695 113.098L26.7879 113.264L32.3934 109.253L33.2481 110.448Z" fill="black"/>
<path id="._3" d="M24.3514 96.048C24.4487 96.3332 24.4387 96.6072 24.3215 96.87C24.1947 97.1282 23.9815 97.3083 23.6821 97.4105C23.3827 97.5126 23.1074 97.4991 22.8564 97.3698C22.5958 97.2359 22.4169 97.0263 22.3196 96.7412C22.2199 96.4489 22.2334 96.1736 22.3602 95.9155C22.4799 95.6597 22.6895 95.4808 22.9889 95.3786C23.2884 95.2765 23.5672 95.2888 23.8253 95.4157C24.0763 95.5449 24.2517 95.7557 24.3514 96.048Z" fill="black"/>
<path id="S_3" d="M20.0674 78.827C20.0897 79.4368 20.0002 79.979 19.799 80.4537C19.5977 80.9284 19.2987 81.3049 18.9018 81.5832C18.5049 81.8615 18.0205 82.0112 17.4483 82.0321L17.1322 82.0436L17.0785 80.5757L17.3947 80.5642C17.8689 80.5468 18.2211 80.387 18.4513 80.0846C18.6739 79.7825 18.776 79.3792 18.7576 78.8749C18.7389 78.363 18.6234 77.9866 18.411 77.7456C18.1984 77.4971 17.9341 77.3786 17.6179 77.3901C17.3996 77.3981 17.225 77.4686 17.0942 77.6015C16.9631 77.7269 16.8606 77.9115 16.7866 78.1555C16.7048 78.3921 16.6324 78.6812 16.5695 79.0227L16.5225 79.2845C16.4219 79.8309 16.2884 80.3031 16.1221 80.7011C15.9479 81.0919 15.7141 81.3982 15.4207 81.62C15.127 81.8342 14.7393 81.9502 14.2575 81.9678C13.7758 81.9854 13.3614 81.8875 13.0144 81.674C12.6596 81.4533 12.3843 81.1392 12.1885 80.7318C11.9849 80.3171 11.8728 79.8275 11.8521 79.2629C11.8315 78.6984 11.911 78.1942 12.0908 77.7504C12.2628 77.2994 12.5362 76.9427 12.911 76.6802C13.278 76.4106 13.7476 76.2652 14.3197 76.2443L14.6585 76.232L14.7121 77.6999L14.3734 77.7122C14.0723 77.7232 13.8336 77.7923 13.6573 77.9193C13.4732 78.0391 13.3438 78.2097 13.269 78.431C13.1866 78.6526 13.1509 78.914 13.1619 79.2151C13.1784 79.6667 13.2773 79.9986 13.4584 80.2105C13.6317 80.4153 13.8651 80.5122 14.1587 80.5015C14.3544 80.4944 14.5183 80.4394 14.6502 80.3366C14.7818 80.2262 14.8891 80.0678 14.972 79.8612C15.0549 79.6547 15.1245 79.3921 15.1807 79.0735L15.2276 78.8117C15.3274 78.2427 15.4639 77.7478 15.6369 77.3269C15.8097 76.8984 16.0462 76.5619 16.3463 76.3173C16.6464 76.0726 17.0373 75.9415 17.5191 75.9239C18.0009 75.9063 18.4307 76.015 18.8087 76.2499C19.1788 76.4776 19.4775 76.8134 19.7048 77.2573C19.9243 77.6941 20.0451 78.2173 20.0674 78.827Z" fill="black"/>
<path id="c_3" d="M19.9761 70.5758C19.869 71.5492 19.5146 72.2908 18.9129 72.8005C18.3037 73.3094 17.4937 73.5082 16.4829 73.397L14.596 73.1894C13.5852 73.0782 12.8415 72.7084 12.3651 72.08C11.8811 71.4508 11.6926 70.6495 11.7997 69.6762C11.906 68.7103 12.2538 67.9945 12.8431 67.5289C13.4257 67.0549 14.1775 66.8686 15.0985 66.97L15.1659 66.9774L15.0052 68.4374L14.8929 68.4251C14.4287 68.374 14.0324 68.463 13.7041 68.6921C13.3765 68.9137 13.1835 69.2904 13.125 69.822C13.0674 70.3461 13.183 70.7756 13.4721 71.1106C13.7611 71.4455 14.1826 71.6434 14.7367 71.7044L16.6685 71.917C17.2151 71.9771 17.6696 71.8756 18.032 71.6123C18.3869 71.3482 18.5932 70.9541 18.6508 70.43C18.7093 69.8984 18.6028 69.4888 18.3314 69.2013C18.0532 68.9054 17.6858 68.7324 17.229 68.6821L17.0268 68.6599L17.1875 67.1998L17.3447 67.2171C18.2657 67.3184 18.9628 67.6642 19.4359 68.2543C19.9023 68.8361 20.0824 69.6099 19.9761 70.5758Z" fill="black"/>
<path id="r_3" d="M20.1454 65.5256L12.4932 63.5251L13.362 60.2018C13.4878 59.7208 13.6811 59.3237 13.9421 59.0104C14.2031 58.6971 14.5123 58.4821 14.8699 58.3654C15.2274 58.2486 15.6139 58.2446 16.0293 58.3532L16.1605 58.3875C16.6196 58.5075 16.9627 58.714 17.1897 59.0069C17.4168 59.2999 17.554 59.6238 17.6014 59.9788L17.7981 60.0302C17.8889 59.7425 18.05 59.5433 18.2814 59.4325C18.5055 59.3198 18.7706 59.3034 19.0767 59.3834L21.5801 60.0379L21.2028 61.4809L18.9072 60.8807C18.7323 60.835 18.5778 60.8452 18.4437 60.9114C18.3115 60.9703 18.2178 61.1054 18.1625 61.3167L17.6367 63.3281L20.5226 64.0826L20.1454 65.5256ZM16.3249 62.9852L16.7764 61.258C16.866 60.9155 16.8444 60.6256 16.7118 60.3885C16.5737 60.1422 16.3517 59.9791 16.0456 59.899L15.9363 59.8705C15.6302 59.7904 15.3613 59.8213 15.1295 59.9632C14.8905 60.1031 14.7253 60.348 14.6338 60.6978L14.1823 62.425L16.3249 62.9852Z" fill="black"/>
<path id="o_7" d="M23.3087 54.9187C22.9198 55.8338 22.3609 56.4557 21.632 56.7843C20.8961 57.11 20.0602 57.074 19.1243 56.6763L17.3772 55.9339C16.4413 55.5362 15.8387 54.9609 15.5693 54.208C15.293 53.4522 15.3493 52.6167 15.7382 51.7016C16.1271 50.7865 16.6895 50.1661 17.4253 49.8404C18.1543 49.5117 18.9867 49.5463 19.9226 49.944L21.6697 50.6864C22.6056 51.0841 23.2117 51.6609 23.488 52.4167C23.7574 53.1696 23.6976 54.0036 23.3087 54.9187ZM22.0816 54.3973C22.2996 53.8842 22.32 53.4223 22.1427 53.0113C21.9653 52.6004 21.6271 52.2889 21.128 52.0768L19.2977 51.299C18.7986 51.0869 18.3395 51.0596 17.9206 51.2172C17.5017 51.3747 17.1833 51.71 16.9653 52.223C16.7502 52.7291 16.7299 53.1911 16.9042 53.609C17.0816 54.0199 17.4198 54.3314 17.9189 54.5435L19.7492 55.3213C20.2483 55.5334 20.7074 55.5607 21.1263 55.4031C21.5481 55.2386 21.8666 54.9033 22.0816 54.3973Z" fill="black"/>
<path id="o_8" d="M26.6352 47.6527C26.1172 48.5014 25.4737 49.0353 24.7046 49.2543C23.9292 49.4693 23.1074 49.312 22.2394 48.7822L20.6191 47.7934C19.751 47.2636 19.2386 46.6067 19.0817 45.8226C18.9184 45.0346 19.0957 44.2163 19.6137 43.3675C20.1317 42.5188 20.7784 41.9869 21.5539 41.7718C22.3229 41.5528 23.1415 41.7082 24.0095 42.2379L25.6298 43.2268C26.4979 43.7566 27.0135 44.4154 27.1768 45.2034C27.3337 45.9875 27.1531 46.8039 26.6352 47.6527ZM25.4971 46.9581C25.7875 46.4823 25.8749 46.0282 25.7593 45.5958C25.6437 45.1635 25.3544 44.806 24.8914 44.5235L23.1939 43.4875C22.731 43.205 22.2808 43.1112 21.8435 43.206C21.4061 43.3009 21.0422 43.5863 20.7518 44.0621C20.4654 44.5315 20.378 44.9856 20.4896 45.4244C20.6052 45.8567 20.8945 46.2142 21.3575 46.4967L23.055 47.5327C23.5179 47.8152 23.9681 47.909 24.4054 47.8141C24.8467 47.7128 25.2106 47.4275 25.4971 46.9581Z" fill="black"/>
<path id="l_3" d="M28.897 43.2093L22.8175 38.1499L23.7715 37.0035L28.8089 41.1955L31.1217 38.4163L32.1639 39.2837L28.897 43.2093Z" fill="black"/>
<path id="D_3" d="M39.521 31.4697L38.7978 30.3766L39.6647 29.803L36.747 25.3929L35.8801 25.9664L35.1569 24.8733L37.8708 23.0778C38.7566 22.4917 39.5784 22.2732 40.3363 22.4221C41.0963 22.5606 41.7693 23.0727 42.3553 23.9585L43.1783 25.2024C43.7643 26.0882 43.9745 26.911 43.8089 27.6709C43.6454 28.4204 43.1207 29.0881 42.2349 29.6742L39.521 31.4697ZM40.8837 28.9424L41.5056 28.5309C42.0082 28.1984 42.2885 27.8233 42.3463 27.4057C42.4042 26.988 42.2752 26.5405 41.9593 26.063L41.0865 24.7438C40.7665 24.26 40.405 23.9663 40.0022 23.8625C39.5952 23.7524 39.1404 23.8636 38.6378 24.1961L38.0158 24.6076L40.8837 28.9424Z" fill="black"/>
<path id="o_9" d="M49.1436 25.5563C48.2433 25.9784 47.4121 26.0686 46.6499 25.8269C45.8845 25.5784 45.2859 24.9937 44.8543 24.073L44.0486 22.3542C43.6169 21.4334 43.552 20.6028 43.8538 19.8624C44.1524 19.1151 44.7518 18.5304 45.6522 18.1084C46.5525 17.6863 47.3853 17.5995 48.1507 17.848C48.9129 18.0897 49.5098 18.671 49.9415 19.5917L50.7472 21.3105C51.1788 22.2313 51.2454 23.0653 50.9468 23.8126C50.645 24.553 50.0439 25.1343 49.1436 25.5563ZM48.5777 24.3491C49.0824 24.1125 49.4059 23.782 49.548 23.3577C49.6902 22.9333 49.6461 22.4756 49.4159 21.9845L48.5718 20.1839C48.3416 19.6928 48.018 19.3662 47.6008 19.204C47.1837 19.0418 46.7228 19.079 46.2181 19.3156C45.7202 19.549 45.3967 19.8795 45.2478 20.307C45.1056 20.7314 45.1496 21.1891 45.3798 21.6802L46.2239 23.4808C46.4541 23.9719 46.7778 24.2985 47.1949 24.4607C47.6189 24.6197 48.0798 24.5825 48.5777 24.3491Z" fill="black"/>
<path id="w_3" d="M54.0875 22.916L50.8134 15.6415L52.2308 15.215L54.9458 21.5723L55.1405 21.5137L54.1135 14.6486L56.5805 13.9064L59.5118 20.1985L59.7066 20.1399L58.4632 13.34L59.8806 12.9136L61.1638 20.7871L58.6969 21.5293L55.6983 15.0922L55.5035 15.1508L56.5545 22.1738L54.0875 22.916Z" fill="black"/>
<path id="n_3" d="M61.1189 20.564L59.9673 12.7389L62.7732 12.326L65.3306 18.9163L65.5318 18.8867L64.5282 12.0677L65.9815 11.8538L67.1331 19.6789L64.3272 20.0918L61.7698 13.5015L61.5686 13.5311L62.5722 20.3501L61.1189 20.564Z" fill="black"/>
</g>
</g>
<defs>
<clipPath id="clip0_9032_18">
<rect width="147.478" height="147.478" fill="white" transform="translate(0.521973)"/>
</clipPath>
</defs>
</svg>
