<svg width="19" height="19" viewBox="0 0 19 19" fill="none" xmlns="http://www.w3.org/2000/svg">
<g clip-path="url(#clip0_9032_77)">
<path d="M17.5484 5.28658C17.4572 4.92214 17.2714 4.58822 17.0099 4.31855C16.7483 4.04888 16.4202 3.85302 16.0587 3.75075C14.7379 3.42822 9.4546 3.42822 9.4546 3.42822C9.4546 3.42822 4.17134 3.42822 2.85052 3.78146C2.48902 3.88374 2.16091 4.0796 1.89934 4.34927C1.63776 4.61893 1.45198 4.95285 1.36076 5.3173C1.11903 6.65774 1.00079 8.01753 1.00752 9.37958C0.998902 10.7519 1.11715 12.122 1.36076 13.4726C1.46133 13.8257 1.65127 14.1469 1.91224 14.4052C2.1732 14.6635 2.49637 14.8501 2.85052 14.947C4.17134 15.3002 9.4546 15.3002 9.4546 15.3002C9.4546 15.3002 14.7379 15.3002 16.0587 14.947C16.4202 14.8447 16.7483 14.6488 17.0099 14.3792C17.2714 14.1095 17.4572 13.7756 17.5484 13.4111C17.7883 12.0808 17.9065 10.7314 17.9017 9.37958C17.9103 8.00728 17.7921 6.63711 17.5484 5.28658Z" stroke="#98FF98" stroke-width="1.5" stroke-linecap="round" stroke-linejoin="round"/>
<path d="M7.72681 11.8906L12.1423 9.3795L7.72681 6.86841V11.8906Z" stroke="#98FF98" stroke-width="1.5" stroke-linecap="round" stroke-linejoin="round"/>
</g>
<defs>
<clipPath id="clip0_9032_77">
<rect width="18.43" height="18.43" fill="white" transform="translate(0.239502 0.356445)"/>
</clipPath>
</defs>
</svg>
